# Blender 4.0.2
# www.blender.org
o Cube
v 0.448465 -0.058351 -0.539030
v 0.368157 -0.038016 0.533381
v -0.526044 -0.032300 0.477257
v -0.346221 -0.057149 -0.417917
v 0.651877 0.541876 -0.511771
v 0.222002 0.516356 0.756911
v -0.509887 0.587475 0.552980
v -0.340931 0.590229 -0.740787
v 0.522703 -0.078798 -0.073998
v 0.033633 -0.036357 -0.391761
v 0.600180 0.269123 -0.610842
v -0.077281 -0.057250 0.614493
v 0.577634 0.239019 0.690792
v -0.547316 -0.127009 -0.059229
v -0.824030 0.226004 0.426793
v -0.592864 0.240780 -0.566777
v 0.487716 0.623279 0.023948
v 0.052629 0.563410 -0.792534
v -0.172424 0.576190 0.865000
v -0.588546 0.651622 0.004899
v -0.007894 -0.156353 -0.030121
v 0.023053 0.675782 -0.126865
v 0.587591 0.346235 0.084516
v 0.130038 0.226320 0.682725
v -0.824441 0.214909 -0.032016
v -0.099912 0.168410 -0.768212
v 0.504433 -0.063230 0.235128
v -0.160729 -0.030152 -0.351023
v 0.692913 0.403788 -0.590907
v -0.268937 -0.028999 0.577189
v 0.468160 0.338773 0.713247
v -0.431182 -0.109602 -0.268554
v -0.640794 0.441995 0.609038
v -0.487263 0.463037 -0.715721
v 0.404229 0.673206 0.451039
v -0.087496 0.573587 -0.900582
v -0.305143 0.573974 0.663940
v -0.678011 0.622518 -0.358424
v 0.521011 -0.095247 -0.318933
v 0.234475 -0.071429 -0.513403
v 0.540636 0.087558 -0.643778
v 0.121793 -0.070738 0.595536
v 0.507293 0.091746 0.656474
v -0.577866 -0.108923 0.229734
v -0.785670 0.055140 0.385354
v -0.531638 0.037260 -0.507803
v 0.615977 0.608433 -0.297235
v 0.385227 0.561096 -0.649852
v -0.032639 0.551464 0.898022
v -0.588215 0.640615 0.323190
v -0.238112 -0.137021 -0.018695
v 0.240211 -0.156057 -0.055530
v 0.086397 -0.094236 -0.266230
v -0.053137 -0.137176 0.297982
v -0.099005 0.680190 0.315409
v 0.031499 0.638152 -0.497157
v 0.305750 0.676172 -0.145390
v -0.301671 0.671792 -0.005638
v 0.633731 0.315365 0.504178
v 0.633554 0.300104 -0.344864
v 0.634449 0.120545 -0.031942
v 0.525456 0.534251 0.098756
v -0.521785 0.201464 0.644796
v 0.333514 0.219966 0.724342
v -0.067560 0.078339 0.752510
v -0.033435 0.326030 0.801096
v -0.879948 0.159807 -0.362307
v -0.823242 0.231306 0.229512
v -0.774221 -0.076900 -0.127793
v -0.741527 0.534259 0.022665
v -0.387729 0.248779 -0.701251
v 0.278159 0.224633 -0.748251
v 0.076613 0.419625 -0.916115
v -0.090257 0.030473 -0.616950
v -0.315460 -0.113164 0.296163
v -0.338960 0.664851 0.349092
v 0.557965 0.533947 0.490484
v -0.472254 0.371812 0.696171
v -0.859720 0.458253 -0.349888
v -0.375524 0.074529 -0.561503
v -0.179844 -0.109838 -0.298374
v 0.274029 -0.142056 -0.328811
v 0.191727 -0.149074 0.266585
v 0.171390 0.685443 0.431846
v 0.400782 0.666657 -0.358333
v -0.272089 0.645024 -0.444705
v 0.673834 0.094882 0.373410
v 0.661896 0.063689 -0.428030
v 0.711772 0.448603 -0.353518
v -0.353347 0.095318 0.673469
v 0.247137 0.076718 0.699728
v 0.262094 0.345705 0.705226
v -0.673219 -0.039348 -0.404042
v -0.775190 0.016756 0.243821
v -0.717160 0.508550 0.373389
v -0.131599 0.458390 -0.858387
v 0.401019 0.425159 -0.764293
v 0.256356 0.057347 -0.599191
vn -0.0783 -0.9792 0.1872
vn -0.2929 -0.8343 0.4670
vn -0.2368 -0.9526 0.1909
vn -0.0706 0.9860 0.1511
vn -0.3190 0.8433 0.4325
vn -0.3155 0.8741 0.3694
vn 0.7396 0.6013 0.3025
vn 0.4117 0.5341 0.7384
vn 0.4112 0.2637 0.8725
vn -0.6190 0.3658 0.6950
vn -0.4155 -0.0426 0.9086
vn -0.3826 0.9067 -0.1777
vn -0.5627 0.1606 -0.8109
vn -0.8770 0.3978 -0.2695
vn -0.1870 -0.7057 -0.6834
vn 0.0763 -0.8295 -0.5532
vn -0.2305 -0.5636 -0.7932
vn -0.0571 -0.9982 -0.0201
vn -0.0712 -0.9740 -0.2150
vn 0.0295 -0.9340 -0.3561
vn 0.0934 -0.9949 -0.0379
vn -0.1092 -0.9577 -0.2661
vn -0.0308 -0.9874 -0.1554
vn 0.0915 -0.8916 0.4434
vn -0.0684 -0.9861 0.1511
vn 0.1099 -0.9850 0.1330
vn 0.0367 0.9881 0.1492
vn -0.2627 0.7604 0.5939
vn 0.1348 0.5288 0.8379
vn 0.0315 0.9847 -0.1711
vn 0.0988 0.9951 -0.0091
vn 0.1373 0.9812 -0.1356
vn -0.0516 0.9983 -0.0275
vn -0.0446 0.9919 -0.1186
vn 0.8639 -0.4817 0.1468
vn 0.6555 0.0009 0.7552
vn 0.4415 -0.6349 0.6340
vn 0.9787 -0.2035 0.0269
vn 0.9814 -0.1904 0.0236
vn 0.8839 -0.4229 -0.1999
vn 0.5278 0.8494 0.0077
vn 0.8794 0.4590 0.1267
vn 0.9929 0.0758 0.0912
vn -0.4008 -0.2771 0.8733
vn -0.7013 -0.6077 0.3728
vn -0.2813 -0.3350 0.8992
vn 0.1457 -0.4454 0.8834
vn -0.0060 -0.1722 0.9850
vn -0.0969 -0.1655 0.9814
vn 0.0353 -0.5287 0.8481
vn 0.0992 -0.2199 0.9705
vn -0.8878 -0.2364 -0.3949
vn -0.3409 -0.8088 -0.4791
vn -0.7357 -0.6547 0.1733
vn -0.9946 -0.0110 0.1037
vn -0.5164 -0.8538 -0.0660
vn -0.3438 0.9253 0.1600
vn -0.7825 0.6148 0.0984
vn -0.7765 0.5801 0.2458
vn -0.3999 -0.4268 -0.8111
vn -0.2522 -0.0163 -0.9675
vn 0.2317 -0.4685 -0.8525
vn 0.0928 0.1155 -0.9890
vn 0.4424 0.2370 -0.8649
vn -0.0338 -0.6962 -0.7171
vn -0.1263 -0.8998 -0.4177
vn -0.0687 -0.8895 -0.4517
vn -0.1198 -0.9920 -0.0402
vn -0.0305 -0.9967 -0.0751
vn -0.1884 -0.8567 0.4802
vn -0.0542 0.9954 0.0793
vn -0.0124 0.9984 -0.0549
vn -0.2826 0.9592 0.0065
vn 0.9265 0.3038 0.2221
vn 0.9811 0.1866 0.0516
vn 0.2784 0.9428 0.1834
vn -0.9048 -0.0399 0.4239
vn -0.5304 -0.2824 -0.7993
vn -0.1071 -0.6083 -0.7865
vn 0.0101 -0.8112 -0.5847
vn -0.2246 -0.8084 -0.5441
vn 0.2401 -0.8268 -0.5086
vn 0.5107 -0.8574 0.0629
vn 0.4090 -0.9086 -0.0845
vn 0.4758 -0.8706 0.1254
vn 0.3152 -0.8646 0.3913
vn 0.4783 0.8723 0.1015
vn 0.5839 0.7316 -0.3519
vn 0.2356 0.8422 -0.4850
vn 0.0823 0.6571 -0.7493
vn 0.2586 0.8263 -0.5004
vn -0.2694 0.8430 -0.4656
vn 0.7693 -0.2139 -0.6021
vn 0.4421 -0.4913 -0.7505
vn 0.8620 -0.0365 -0.5055
vn -0.1137 -0.8860 0.4496
vn -0.0125 -0.0898 0.9959
vn -0.9979 0.0640 0.0093
s 1
f 75//1 3//2 44//3
f 76//4 7//5 37//6
f 77//7 6//8 31//9
f 37//6 33//10 78//11
f 38//12 34//13 79//14
f 80//15 4//16 46//17
f 51//18 32//19 81//20
f 52//21 53//22 82//23
f 42//24 54//25 83//26
f 84//27 19//28 49//29
f 56//30 57//31 85//32
f 38//12 58//33 86//34
f 87//35 13//36 43//37
f 60//38 61//39 88//40
f 47//41 62//42 89//43
f 63//44 45//45 90//46
f 91//47 24//48 65//49
f 49//29 66//50 92//51
f 67//52 46//17 93//53
f 94//54 25//55 69//56
f 50//57 70//58 95//59
f 71//60 34//13 96//61
f 72//62 73//63 97//64
f 98//65 10//66 74//67
f 51//18 44//3 14//68
f 54//25 51//18 21//69
f 54//25 30//70 75//1
f 55//71 37//6 19//28
f 58//33 55//71 22//72
f 20//73 76//4 58//33
f 59//74 31//9 13//36
f 23//75 77//7 59//74
f 62//42 35//76 77//7
f 78//11 15//77 63//44
f 66//50 63//44 24//48
f 19//28 78//11 66//50
f 79//14 16//78 67//52
f 25//55 79//14 67//52
f 70//58 38//12 79//14
f 80//15 16//78 71//60
f 26//79 80//15 71//60
f 74//67 28//80 80//15
f 81//20 4//16 28//80
f 10//66 81//20 28//80
f 21//69 81//20 53//22
f 40//81 53//22 10//66
f 1//82 82//23 40//81
f 9//83 82//23 39//84
f 83//26 21//69 52//21
f 27//85 52//21 9//83
f 2//86 83//26 27//85
f 84//27 6//8 35//76
f 17//87 84//27 35//76
f 22//72 84//27 57//31
f 47//41 57//31 17//87
f 5//88 85//32 47//41
f 48//89 56//30 85//32
f 86//34 22//72 56//30
f 36//90 56//30 18//91
f 8//92 86//34 36//90
f 87//35 2//86 27//85
f 61//39 27//85 9//83
f 23//75 87//35 61//39
f 88//40 9//83 39//84
f 1//82 88//40 39//84
f 11//93 88//40 41//94
f 89//43 23//75 60//38
f 29//95 60//38 11//93
f 5//88 89//43 29//95
f 90//46 3//2 30//70
f 65//49 30//70 12//96
f 24//48 90//46 65//49
f 42//24 65//49 12//96
f 2//86 91//47 42//24
f 43//37 64//97 91//47
f 92//51 24//48 64//97
f 31//9 64//97 13//36
f 6//8 92//51 31//9
f 93//53 4//16 32//19
f 69//56 32//19 14//68
f 69//56 67//52 93//53
f 44//3 69//56 14//68
f 3//2 94//54 44//3
f 45//45 68//98 94//54
f 68//98 70//58 25//55
f 15//77 95//59 68//98
f 7//5 95//59 33//10
f 96//61 8//92 36//90
f 18//91 96//61 36//90
f 26//79 96//61 73//63
f 97//64 18//91 48//89
f 5//88 97//64 48//89
f 11//93 97//64 29//95
f 98//65 26//79 72//62
f 41//94 72//62 11//93
f 1//82 98//65 41//94
f 75//1 30//70 3//2
f 76//4 50//57 7//5
f 77//7 35//76 6//8
f 37//6 7//5 33//10
f 38//12 8//92 34//13
f 80//15 28//80 4//16
f 51//18 14//68 32//19
f 52//21 21//69 53//22
f 42//24 12//96 54//25
f 84//27 55//71 19//28
f 56//30 22//72 57//31
f 38//12 20//73 58//33
f 87//35 59//74 13//36
f 60//38 23//75 61//39
f 47//41 17//87 62//42
f 63//44 15//77 45//45
f 91//47 64//97 24//48
f 49//29 19//28 66//50
f 67//52 16//78 46//17
f 94//54 68//98 25//55
f 50//57 20//73 70//58
f 71//60 16//78 34//13
f 72//62 26//79 73//63
f 98//65 40//81 10//66
f 51//18 75//1 44//3
f 54//25 75//1 51//18
f 54//25 12//96 30//70
f 55//71 76//4 37//6
f 58//33 76//4 55//71
f 20//73 50//57 76//4
f 59//74 77//7 31//9
f 23//75 62//42 77//7
f 62//42 17//87 35//76
f 78//11 33//10 15//77
f 66//50 78//11 63//44
f 19//28 37//6 78//11
f 79//14 34//13 16//78
f 25//55 70//58 79//14
f 70//58 20//73 38//12
f 80//15 46//17 16//78
f 26//79 74//67 80//15
f 74//67 10//66 28//80
f 81//20 32//19 4//16
f 10//66 53//22 81//20
f 21//69 51//18 81//20
f 40//81 82//23 53//22
f 1//82 39//84 82//23
f 9//83 52//21 82//23
f 83//26 54//25 21//69
f 27//85 83//26 52//21
f 2//86 42//24 83//26
f 84//27 49//29 6//8
f 17//87 57//31 84//27
f 22//72 55//71 84//27
f 47//41 85//32 57//31
f 5//88 48//89 85//32
f 48//89 18//91 56//30
f 86//34 58//33 22//72
f 36//90 86//34 56//30
f 8//92 38//12 86//34
f 87//35 43//37 2//86
f 61//39 87//35 27//85
f 23//75 59//74 87//35
f 88//40 61//39 9//83
f 1//82 41//94 88//40
f 11//93 60//38 88//40
f 89//43 62//42 23//75
f 29//95 89//43 60//38
f 5//88 47//41 89//43
f 90//46 45//45 3//2
f 65//49 90//46 30//70
f 24//48 63//44 90//46
f 42//24 91//47 65//49
f 2//86 43//37 91//47
f 43//37 13//36 64//97
f 92//51 66//50 24//48
f 31//9 92//51 64//97
f 6//8 49//29 92//51
f 93//53 46//17 4//16
f 69//56 93//53 32//19
f 69//56 25//55 67//52
f 44//3 94//54 69//56
f 3//2 45//45 94//54
f 45//45 15//77 68//98
f 68//98 95//59 70//58
f 15//77 33//10 95//59
f 7//5 50//57 95//59
f 96//61 34//13 8//92
f 18//91 73//63 96//61
f 26//79 71//60 96//61
f 97//64 73//63 18//91
f 5//88 29//95 97//64
f 11//93 72//62 97//64
f 98//65 74//67 26//79
f 41//94 98//65 72//62
f 1//82 40//81 98//65
