# Blender 4.0.2
# www.blender.org
o Tree_small_regular
v -0.161173 0.000000 0.173616
v 0.060236 1.284209 0.105012
v -0.111944 0.000000 -0.127914
v 0.058636 1.257179 -0.080683
v 0.197739 0.000000 0.173984
v 0.224435 1.227277 0.093982
v 0.223586 0.000000 -0.178011
v 0.253446 1.236999 -0.116568
v 0.037030 2.398101 0.064306
v 0.029500 2.390897 -0.081932
v 0.161743 2.399224 -0.117447
v 0.138823 2.400985 0.028736
v -0.011090 2.894809 0.103261
v -0.009559 2.887465 0.028649
v 0.066432 2.906558 0.014231
v 0.056015 2.900714 0.098829
v 0.106890 2.482076 0.039133
v 0.024663 2.469799 0.066648
v 0.026018 2.467415 -0.076657
v 0.135396 2.486209 -0.108652
v 0.442926 2.787896 -0.154988
v 0.437822 2.775523 -0.060190
v 0.390283 2.819945 -0.149024
v 0.385948 2.808910 -0.064958
v -0.338535 1.870930 -0.063475
v -0.463901 2.048212 0.245818
v -0.357295 2.179446 0.551252
v -0.553247 2.892439 0.630200
v -0.435112 3.525966 0.707603
v -0.188784 5.127081 0.178841
v -0.220495 5.007683 -0.124882
v -0.354604 4.093539 -0.377225
v -0.417591 3.445444 -0.653739
v -0.522288 2.927754 -0.635884
v -0.490706 2.497323 -0.540533
v -0.311885 1.956260 -0.374913
v 0.334589 1.990191 -0.596994
v -0.047380 1.965594 -0.568958
v -0.110425 4.114108 -0.580442
v 0.387431 4.103368 -0.635442
v 0.788452 3.445870 -0.653722
v 0.913118 2.955647 -0.581127
v 0.856649 2.089241 0.162626
v 0.681025 1.871295 -0.064023
v 0.669987 1.993042 -0.399061
v 0.646954 4.978026 -0.114543
v 0.612439 5.112691 0.177738
v 0.691514 4.089601 0.534860
v 0.810223 3.526418 0.707378
v 0.911093 2.892772 0.630144
v 0.705192 2.075216 0.475622
v -0.171661 1.973339 0.536650
v 0.157242 2.008469 0.662382
v 0.233918 1.813828 0.482379
v 0.560578 5.013097 0.355837
v 0.388000 5.054118 0.453880
v 0.061455 5.315084 0.360904
v -0.144411 4.953555 0.372963
v -0.444240 4.152796 0.280134
v -0.675009 2.769524 0.316015
v -0.644842 3.363023 0.344250
v -0.535121 2.129201 0.019361
v -0.681822 3.150320 -0.128621
v -0.616233 2.491372 -0.258729
v -0.495845 4.008277 -0.058312
v -0.546118 3.511321 -0.429314
v -0.246028 2.447917 -0.721258
v 0.059611 2.886297 -0.905705
v 0.019713 3.439321 -0.840142
v 0.076196 2.402299 -0.792590
v 0.527708 2.443015 -0.756072
v 0.434777 3.420786 -0.821820
v 0.640140 2.856274 -0.795843
v 0.839469 2.497411 -0.540634
v 0.919184 3.511532 -0.429441
v 1.042326 2.952970 -0.226667
v 0.747772 4.076879 -0.380681
v 0.871210 2.140032 -0.136479
v 0.891516 4.016197 -0.001137
v 1.029650 2.769756 0.316278
v 1.033354 3.333798 0.290288
v 0.815193 4.150980 0.324958
v 0.492585 2.190294 0.682858
v 0.584679 3.033897 0.840111
v 0.400689 3.997963 0.697569
v 0.190198 3.668217 0.752314
v -0.164245 3.000857 0.856179
v 0.058352 4.721866 0.531090
v 0.108067 2.230448 0.773742
v -0.234656 4.066105 0.607007
v 0.334452 1.778129 -0.350233
v 0.053216 1.740653 -0.302860
v 0.342117 1.686600 0.026295
v -0.161819 1.743802 0.118766
v 0.489607 1.776680 0.250694
v 0.460464 4.946803 -0.341457
v 0.054656 5.085109 -0.336983
v 0.286037 5.727705 -0.041357
v 0.070955 5.605733 -0.071594
v 0.325836 5.717128 0.103996
v 0.219900 5.773492 0.122126
v 0.113592 5.721093 0.100660
vn -0.9774 0.1386 -0.1596
vn -0.1474 0.0571 -0.9874
vn 0.9972 -0.0169 0.0732
vn -0.0010 0.0651 0.9979
vn -0.0000 -1.0000 -0.0000
vn -0.9996 -0.0257 0.0124
vn 0.0727 -0.0795 0.9942
vn 0.3285 0.0413 0.9436
vn -0.1827 -0.0152 -0.9831
vn 0.9870 0.0798 0.1397
vn -0.2367 0.9708 0.0379
vn -0.2381 0.2363 -0.9420
vn 0.9865 0.1016 0.1285
vn -0.9966 -0.0824 -0.0081
vn -0.9973 -0.0491 0.0538
vn -0.7918 0.6095 0.0392
vn -0.2604 0.0187 -0.9653
vn 0.3141 0.0232 0.9491
vn 0.5271 0.8386 0.1378
vn -0.1890 0.0420 -0.9811
vn 0.7897 -0.5993 0.1310
vn 0.0705 0.2476 0.9663
vn -0.8825 0.2562 0.3945
vn -0.9371 -0.2928 0.1900
vn -0.9768 0.2133 -0.0196
vn -0.9944 -0.0872 -0.0595
vn -0.8558 -0.4217 -0.2996
vn -0.8945 0.3220 -0.3101
vn -0.9406 0.0785 -0.3303
vn -0.7904 0.2301 0.5678
vn -0.8090 -0.5456 -0.2187
vn -0.7907 -0.6115 0.0300
vn -0.2412 -0.2287 -0.9432
vn -0.0368 -0.4472 -0.8937
vn 0.0986 -0.2233 -0.9698
vn 0.0544 0.2665 -0.9623
vn 0.1870 0.0228 -0.9821
vn 0.4538 -0.4614 -0.7624
vn -0.6080 -0.2140 -0.7646
vn 0.6093 0.0377 -0.7921
vn 0.9240 -0.1784 -0.3382
vn 0.9365 0.0828 -0.3408
vn 0.9069 0.3004 -0.2954
vn 0.9818 0.1608 -0.1014
vn 0.8986 0.2239 0.3773
vn 0.9267 0.1980 -0.3193
vn 0.9654 0.2240 0.1334
vn 0.8109 0.2201 0.5422
vn 0.8070 -0.5874 -0.0605
vn 0.7593 -0.6032 -0.2442
vn 0.0954 0.1035 0.9900
vn 0.1686 -0.4119 0.8955
vn 0.0148 0.1461 0.9892
vn -0.1215 0.1675 0.9784
vn -0.1203 0.2247 0.9670
vn -0.3981 -0.2356 0.8866
vn 0.5355 -0.0177 0.8444
vn 0.5216 0.2331 0.8207
vn -0.3792 0.2718 0.8845
vn -0.4996 -0.0127 0.8661
vn -0.2684 -0.4788 0.8359
vn 0.3522 -0.6168 0.7039
vn -0.1226 -0.9909 -0.0551
vn -0.0629 -0.9651 0.2543
vn 0.1296 -0.9467 0.2948
vn -0.2715 -0.8462 0.4584
vn 0.4067 -0.7187 0.5640
vn 0.3642 -0.7064 -0.6069
vn 0.6625 -0.7259 0.1847
vn 0.1191 0.3792 -0.9176
vn -0.1332 0.4534 -0.8813
vn -0.6304 0.3681 -0.6834
vn 0.5206 0.4361 0.7340
vn 0.3816 0.4591 0.8022
vn -0.6263 0.2915 -0.7230
vn 0.7258 0.2683 -0.6334
vn -0.8812 0.1081 0.4602
vn -0.9580 -0.0393 -0.2841
vn -0.9973 0.0480 0.0564
vn -0.9676 0.2491 0.0412
vn -0.9765 -0.2154 0.0044
vn -0.9606 0.2219 -0.1671
vn -0.8368 -0.3932 -0.3810
vn -0.9673 0.2537 0.0012
vn -0.7310 0.3772 0.5687
vn -0.8575 0.2703 0.4377
vn -0.3899 0.0806 -0.9173
vn -0.9113 0.2283 -0.3426
vn -0.7845 0.3063 -0.5392
vn -0.8380 0.1514 -0.5243
vn -0.4241 -0.0837 -0.9017
vn -0.5942 -0.4085 -0.6928
vn -0.3744 0.2693 -0.8873
vn -0.2511 -0.3840 -0.8886
vn -0.0959 0.3414 -0.9350
vn 0.1080 -0.3702 -0.9227
vn 0.0492 0.1211 -0.9914
vn 0.1770 -0.1419 -0.9739
vn 0.4201 0.1114 -0.9006
vn 0.3981 0.2672 -0.8775
vn 0.6467 -0.1697 -0.7436
vn -0.6147 0.3593 -0.7022
vn 0.5561 0.3600 -0.7491
vn 0.9689 -0.2475 0.0051
vn 0.5681 -0.3937 -0.7227
vn 0.8230 -0.3920 -0.4112
vn 0.9345 -0.2271 -0.2742
vn 0.9769 0.1669 -0.1335
vn 0.8492 -0.2965 0.4370
vn 0.9998 -0.0056 0.0215
vn 0.9603 0.2512 0.1209
vn 0.8948 0.0891 0.4375
vn 0.4627 -0.2110 0.8611
vn 0.8383 0.1350 -0.5282
vn 0.7890 0.2861 -0.5437
vn 0.9691 0.2465 0.0009
vn 0.8845 0.2471 0.3957
vn 0.7679 0.3300 0.5490
vn 0.3741 0.3428 0.8617
vn 0.4268 0.2082 0.8801
vn 0.2054 -0.2010 0.9578
vn 0.1179 0.2077 0.9711
vn 0.0256 -0.0974 0.9949
vn 0.0016 0.2248 0.9744
vn -0.1128 0.2324 0.9661
vn -0.1179 0.2136 0.9698
vn -0.3629 -0.3869 0.8477
vn -0.4207 -0.8830 -0.2080
vn -0.0530 0.2756 0.9598
vn -0.3963 0.2551 0.8820
vn -0.4440 -0.2183 0.8690
vn 0.2749 -0.5922 0.7575
vn 0.4202 -0.8798 -0.2224
vn 0.0890 -0.9674 -0.2370
vn 0.0010 -0.7584 -0.6518
vn 0.4849 -0.8740 0.0322
vn -0.8518 -0.2829 0.4408
vn -0.3552 -0.7758 -0.5215
vn -0.5695 -0.7260 0.3854
vn 0.6600 -0.6938 0.2883
vn -0.1860 -0.7056 0.6837
vn 0.8923 0.3968 -0.2154
vn -0.6716 -0.7267 0.1443
vn -0.6342 0.2878 -0.7177
vn 0.6845 0.3897 -0.6162
vn -0.3947 0.8056 -0.4418
vn 0.4606 0.8855 -0.0617
vn -0.8932 0.4425 -0.0807
vn -0.7195 0.4279 0.5470
vn 0.7771 0.4251 0.4640
vn -0.4106 0.5288 0.7428
vn 0.5735 0.2249 -0.7877
vn 0.0986 0.3199 -0.9423
vn -0.1006 0.2580 -0.9609
vn 0.0923 0.4347 0.8958
vn -0.9855 0.1690 -0.0161
vn -0.1756 0.0531 -0.9830
vn 0.9904 -0.0306 0.1350
vn 0.0805 0.0393 0.9960
vn -0.9985 -0.0189 0.0523
vn 0.3285 -0.0941 0.9398
vn 0.0882 0.0617 0.9942
vn -0.2589 -0.0077 -0.9659
vn 0.9851 0.0778 0.1535
vn -0.0937 0.9906 -0.0994
vn -0.3073 0.2068 -0.9289
vn 0.9760 0.1042 0.1912
vn -0.9965 -0.0828 -0.0123
vn -0.9855 -0.1698 -0.0065
vn -0.7742 0.6190 -0.1320
vn -0.2887 0.0528 -0.9560
vn 0.3296 0.0088 0.9441
vn 0.5264 0.8391 0.1373
vn -0.1265 -0.0233 -0.9917
vn 0.8082 -0.5879 -0.0332
vn 0.2932 -0.0071 0.9560
vn -0.9360 0.0309 0.3507
vn -0.9011 -0.1558 -0.4047
vn -0.9630 0.2675 0.0326
vn -0.4170 0.0530 -0.9074
vn -0.5196 -0.4444 -0.7297
vn 0.5800 -0.2329 -0.7806
vn 0.9763 -0.2109 -0.0484
vn 0.8612 -0.3099 0.4028
vn 0.9367 0.0100 0.3499
vn 0.5828 -0.2902 0.7590
vn -0.4491 -0.8512 -0.2716
vn 0.4794 -0.8197 -0.3136
vn -0.0066 -0.7649 -0.6441
vn -0.8569 -0.2921 0.4246
vn -0.6341 -0.6052 0.4813
vn 0.8930 0.4394 -0.0970
vn -0.3460 0.8577 -0.3802
vn -0.8926 0.4443 -0.0766
vn -0.7203 0.4375 0.5383
vt 0.546151 0.527614
vt 0.550141 0.728861
vt 0.547045 0.527614
vt 0.553134 0.527614
vt 0.553150 0.726543
vt 0.552665 0.527614
vt 0.550170 0.731683
vt 0.549612 0.890230
vt 0.549524 0.902196
vt 0.550093 0.967551
vt 0.548875 0.966656
vt 0.551596 0.891760
vt 0.549748 0.891323
vt 0.552012 0.891493
vt 0.553676 0.727527
vt 0.548903 0.965542
vt 0.550282 0.968438
vt 0.551534 0.904686
vt 0.551016 0.904059
vt 0.549549 0.901836
vt 0.556081 0.953627
vt 0.556160 0.955302
vt 0.557115 0.950441
vt 0.557022 0.948565
vt 0.137021 0.728428
vt 0.136876 0.796569
vt 0.133676 0.710715
vt 0.136562 0.567786
vt 0.133195 0.646198
vt 0.135426 0.576590
vt 0.136053 0.780859
vt 0.133086 0.687593
vt 0.134132 0.615960
vt 0.138987 0.557790
vt 0.138306 0.790128
vt 0.135251 0.726836
vt 0.135631 0.663398
vt 0.141658 0.883618
vt 0.140219 0.787145
vt 0.138562 0.548514
vt 0.144913 0.658891
vt 0.145177 0.606277
vt 0.140038 0.611236
vt 0.143206 0.558804
vt 0.149299 0.561478
vt 0.152379 0.610704
vt 0.144276 0.719009
vt 0.150142 0.791196
vt 0.150897 0.716994
vt 0.154173 0.655628
vt 0.154649 0.561788
vt 0.136135 0.616607
vt 0.156538 0.719721
vt 0.158527 0.666431
vt 0.160588 0.666139
vt 0.157352 0.616617
vt 0.158624 0.726859
vt 0.155890 0.788316
vt 0.158183 0.781720
vt 0.160445 0.707538
vt 0.156965 0.796372
vt 0.156886 0.728477
vt 0.154281 0.886278
vt 0.153731 0.900917
vt 0.152904 0.890090
vt 0.154992 0.789700
vt 0.157859 0.577767
vt 0.157626 0.572246
vt 0.154825 0.548554
vt 0.150353 0.779738
vt 0.146996 0.743892
vt 0.151819 0.583231
vt 0.145686 0.587596
vt 0.146470 0.563465
vt 0.153288 0.674937
vt 0.141342 0.671345
vt 0.144893 0.858431
vt 0.138263 0.582052
vt 0.158495 0.659595
vt 0.150151 0.894549
vt 0.135137 0.659559
vt 0.141224 0.559646
vt 0.155210 0.570721
vt 0.147693 0.542306
vt 0.144811 0.534352
vt 0.149419 0.528476
vt 0.141381 0.534694
vt 0.151772 0.538268
vt 0.149297 0.538425
vt 0.144834 0.897918
vt 0.148525 0.967773
vt 0.151307 0.882883
vt 0.145094 0.954514
vt 0.140445 0.889502
vt 0.149159 0.966623
vt 0.147470 0.972751
vt 0.142201 0.792364
vt 0.140951 0.902481
vt 0.137301 0.719675
vt 0.160386 0.646223
vt 0.144942 0.922918
vt 0.145774 0.967054
s 0
f 1/1/1 4/2/1 3/3/1
f 4/2/2 7/4/2 3/3/2
f 7/4/3 6/5/3 5/6/3
f 6/5/4 1/1/4 5/6/4
f 3/3/5 5/6/5 1/1/5
f 2/7/6 10/8/6 4/2/6
f 18/9/7 16/10/7 13/11/7
f 2/7/8 12/12/8 9/13/8
f 4/2/9 11/14/9 8/15/9
f 8/15/10 12/12/10 6/5/10
f 14/16/11 16/10/11 15/17/11
f 20/18/12 14/16/12 15/17/12
f 17/19/13 15/17/13 16/10/13
f 18/9/14 14/16/14 19/20/14
f 9/13/15 19/20/15 10/8/15
f 20/18/16 24/21/16 23/22/16
f 10/8/17 20/18/17 11/14/17
f 9/13/18 17/19/18 18/9/18
f 21/23/19 24/21/19 22/24/19
f 20/18/20 21/23/20 11/14/20
f 11/14/21 22/24/21 12/12/21
f 17/19/22 22/24/22 24/21/22
f 29/25/23 59/26/23 61/27/23
f 26/28/24 60/29/24 62/30/24
f 61/27/25 65/31/25 63/32/25
f 60/29/26 63/32/26 64/33/26
f 64/33/27 36/34/27 62/30/27
f 65/31/28 32/35/28 66/36/28
f 63/32/29 66/36/29 34/37/29
f 58/38/30 59/26/30 90/39/30
f 62/30/31 36/34/31 25/40/31
f 26/28/32 62/30/32 25/40/32
f 68/41/33 70/42/33 67/43/33
f 38/44/34 70/42/34 37/45/34
f 68/41/35 71/46/35 70/42/35
f 69/47/36 40/48/36 72/49/36
f 68/41/37 72/49/37 73/50/37
f 71/46/38 45/51/38 37/45/38
f 35/52/39 34/37/39 67/43/39
f 41/53/40 42/54/40 73/50/40
f 42/54/41 76/55/41 74/56/41
f 75/57/42 76/55/42 42/54/42
f 77/58/43 79/59/43 75/57/43
f 79/59/44 81/60/44 76/55/44
f 82/61/45 49/62/45 81/60/45
f 46/63/46 79/59/46 77/58/46
f 47/64/47 82/61/47 79/59/47
f 82/61/48 55/65/48 48/66/48
f 78/67/49 43/68/49 44/69/49
f 45/51/50 78/67/50 44/69/50
f 85/70/51 86/71/51 49/62/51
f 83/72/52 89/73/52 53/74/52
f 84/75/53 86/71/53 87/76/53
f 85/70/54 88/77/54 90/39/54
f 86/71/55 90/39/55 29/25/55
f 89/73/56 87/76/56 27/78/56
f 49/62/57 84/75/57 50/79/57
f 55/65/58 56/80/58 48/66/58
f 88/77/59 58/38/59 90/39/59
f 87/76/60 29/25/60 28/81/60
f 89/73/61 52/82/61 53/74/61
f 51/83/62 83/72/62 54/84/62
f 92/85/63 93/86/63 94/87/63
f 93/86/64 54/84/64 94/87/64
f 93/86/65 95/88/65 54/84/65
f 54/84/66 52/82/66 94/87/66
f 95/88/67 51/83/67 54/84/67
f 37/45/68 45/51/68 91/89/68
f 44/69/69 43/68/69 95/88/69
f 97/90/70 98/91/70 96/92/70
f 97/90/71 99/93/71 98/91/71
f 97/90/72 31/94/72 99/93/72
f 100/95/73 56/80/73 55/65/73
f 100/95/74 101/96/74 56/80/74
f 39/97/75 32/35/75 31/94/75
f 96/92/76 46/63/76 77/58/76
f 61/27/77 28/81/77 29/25/77
f 34/37/78 64/33/78 63/32/78
f 60/29/79 61/27/79 63/32/79
f 61/27/80 59/26/80 65/31/80
f 62/30/81 60/29/81 64/33/81
f 63/32/82 65/31/82 66/36/82
f 64/33/83 35/52/83 36/34/83
f 31/94/84 59/26/84 30/98/84
f 29/25/85 90/39/85 59/26/85
f 58/38/86 30/98/86 59/26/86
f 68/41/87 33/99/87 69/47/87
f 65/31/88 31/94/88 32/35/88
f 66/36/89 32/35/89 33/99/89
f 34/37/90 66/36/90 33/99/90
f 67/43/91 34/37/91 68/41/91
f 67/43/92 36/34/92 35/52/92
f 33/99/93 39/97/93 69/47/93
f 38/44/94 67/43/94 70/42/94
f 39/97/95 40/48/95 69/47/95
f 70/42/96 71/46/96 37/45/96
f 68/41/97 69/47/97 72/49/97
f 71/46/98 68/41/98 73/50/98
f 73/50/99 72/49/99 41/53/99
f 72/49/100 40/48/100 41/53/100
f 74/56/101 73/50/101 42/54/101
f 32/35/102 39/97/102 33/99/102
f 41/53/103 40/48/103 77/58/103
f 78/67/104 80/100/104 43/68/104
f 71/46/105 74/56/105 45/51/105
f 45/51/106 74/56/106 78/67/106
f 74/56/107 76/55/107 78/67/107
f 75/57/108 79/59/108 76/55/108
f 51/83/109 80/100/109 50/79/109
f 76/55/110 81/60/110 80/100/110
f 79/59/111 82/61/111 81/60/111
f 50/79/112 81/60/112 49/62/112
f 83/72/113 50/79/113 84/75/113
f 41/53/114 75/57/114 42/54/114
f 41/53/115 77/58/115 75/57/115
f 46/63/116 47/64/116 79/59/116
f 82/61/117 47/64/117 55/65/117
f 82/61/118 48/66/118 49/62/118
f 48/66/119 85/70/119 49/62/119
f 48/66/120 56/80/120 85/70/120
f 83/72/121 84/75/121 89/73/121
f 84/75/122 49/62/122 86/71/122
f 89/73/123 84/75/123 87/76/123
f 56/80/124 88/77/124 85/70/124
f 85/70/125 90/39/125 86/71/125
f 86/71/126 29/25/126 87/76/126
f 89/73/127 27/78/127 52/82/127
f 25/40/128 92/85/128 94/87/128
f 56/80/129 57/101/129 88/77/129
f 88/77/130 57/101/130 58/38/130
f 27/78/131 87/76/131 28/81/131
f 54/84/132 83/72/132 53/74/132
f 91/89/133 44/69/133 93/86/133
f 91/89/134 93/86/134 92/85/134
f 91/89/135 38/44/135 37/45/135
f 93/86/136 44/69/136 95/88/136
f 60/29/137 27/78/137 28/81/137
f 38/44/138 92/85/138 36/34/138
f 52/82/139 26/28/139 94/87/139
f 43/68/140 51/83/140 95/88/140
f 52/82/141 54/84/141 53/74/141
f 47/64/142 98/91/142 100/95/142
f 25/40/143 94/87/143 26/28/143
f 97/90/144 39/97/144 31/94/144
f 96/92/145 98/91/145 46/63/145
f 102/102/146 98/91/146 99/93/146
f 98/91/147 101/96/147 100/95/147
f 30/98/148 99/93/148 31/94/148
f 57/101/149 30/98/149 58/38/149
f 47/64/150 100/95/150 55/65/150
f 102/102/151 57/101/151 101/96/151
f 40/48/152 96/92/152 77/58/152
f 40/48/153 97/90/153 96/92/153
f 40/48/154 39/97/154 97/90/154
f 56/80/155 101/96/155 57/101/155
f 1/1/156 2/7/156 4/2/156
f 4/2/157 8/15/157 7/4/157
f 7/4/158 8/15/158 6/5/158
f 6/5/159 2/7/159 1/1/159
f 3/3/5 7/4/5 5/6/5
f 2/7/160 9/13/160 10/8/160
f 18/9/161 17/19/161 16/10/161
f 2/7/162 6/5/162 12/12/162
f 4/2/163 10/8/163 11/14/163
f 8/15/164 11/14/164 12/12/164
f 14/16/165 13/11/165 16/10/165
f 20/18/166 19/20/166 14/16/166
f 17/19/167 20/18/167 15/17/167
f 18/9/168 13/11/168 14/16/168
f 9/13/169 18/9/169 19/20/169
f 20/18/170 17/19/170 24/21/170
f 10/8/171 19/20/171 20/18/171
f 9/13/172 12/12/172 17/19/172
f 21/23/173 23/22/173 24/21/173
f 20/18/174 23/22/174 21/23/174
f 11/14/175 21/23/175 22/24/175
f 17/19/176 12/12/176 22/24/176
f 61/27/177 60/29/177 28/81/177
f 34/37/178 35/52/178 64/33/178
f 31/94/179 65/31/179 59/26/179
f 68/41/180 34/37/180 33/99/180
f 67/43/181 38/44/181 36/34/181
f 74/56/182 71/46/182 73/50/182
f 78/67/183 76/55/183 80/100/183
f 51/83/184 43/68/184 80/100/184
f 50/79/185 80/100/185 81/60/185
f 83/72/186 51/83/186 50/79/186
f 25/40/187 36/34/187 92/85/187
f 91/89/188 45/51/188 44/69/188
f 91/89/189 92/85/189 38/44/189
f 60/29/190 26/28/190 27/78/190
f 52/82/191 27/78/191 26/28/191
f 47/64/192 46/63/192 98/91/192
f 102/102/193 101/96/193 98/91/193
f 30/98/194 102/102/194 99/93/194
f 57/101/195 102/102/195 30/98/195
